# 3ds Max Wavefront OBJ Exporter v0.99 - (c)2007 guruware
# File Created: 29.04.2023 18:24:23

mtllib entrepot.mtl

#
# object Box001
#

v  -114.5610 236.2205 197.9120
v  41.5668 236.2205 197.9120
v  41.5668 236.2205 176.3397
v  -114.5610 236.2205 176.3397
v  -114.5610 0.0000 197.9120
v  37.6298 0.0000 197.9120
v  37.6298 129.7790 197.9120
v  -114.5610 125.8420 197.9120
v  121.6595 0.0000 197.9120
v  121.6595 0.0000 176.3397
v  121.6595 125.8420 176.3397
v  121.6595 125.8420 197.9120
v  121.6595 0.0000 -195.7888
v  107.4006 0.0000 -195.7888
v  107.4006 125.8420 -195.7888
v  121.6595 125.8420 -195.7888
v  -114.5610 0.0000 -195.7888
v  -114.5610 0.0000 -173.7940
v  -114.5610 129.7790 -173.7940
v  -114.5610 125.8420 -195.7888
v  121.6595 236.2205 176.3397
v  121.6595 236.2205 32.0890
v  107.4006 236.2205 31.5424
v  107.4006 236.2205 176.3397
v  121.6595 0.0000 32.0890
v  121.6595 125.8420 32.0890
v  -114.5609 0.0000 180.2767
v  -114.5610 129.7790 180.2767
v  -104.5609 0.0000 26.9712
v  -104.5609 0.0000 172.4027
v  -104.5610 121.9050 172.4027
v  -104.5609 121.9050 26.9712
v  121.6595 236.2205 -16.4304
v  107.4006 236.2205 -16.9769
v  121.6595 0.0000 -16.4304
v  121.6595 125.8420 -16.4304
v  -114.5609 0.0000 -21.5481
v  -114.5609 0.0000 19.0972
v  -114.5609 129.7790 19.0972
v  -114.5609 129.7790 -21.5481
v  121.6595 236.2205 -169.8570
v  107.4006 236.2205 -169.8570
v  121.6595 0.0000 -169.8570
v  121.6595 125.8420 -169.8570
v  -104.5610 -0.0000 -165.9200
v  -104.5609 -0.0000 -29.4221
v  -104.5609 121.9050 -29.4221
v  -104.5610 121.9050 -165.9200
v  121.6595 236.2205 -195.7888
v  107.4006 236.2205 -195.7888
v  121.6595 236.2205 197.9120
v  107.4006 236.2205 197.9120
v  111.3376 129.7790 197.9120
v  -114.5610 236.2205 -195.7888
v  41.5668 236.2205 -195.7888
v  41.5668 125.8420 -195.7888
v  -114.5610 236.2205 -169.8570
v  -114.5609 236.2205 23.0342
v  -114.5609 236.2205 -25.4851
v  -114.5609 0.0000 172.4027
v  -110.6239 0.0000 176.3397
v  -110.6268 0.0000 23.1850
v  -114.5609 0.0000 26.9712
v  -114.5609 0.0000 -29.4221
v  -110.6268 0.0000 -25.3343
v  -110.6239 0.0000 -169.8570
v  -114.5610 0.0000 -165.9200
v  -148.1830 129.7790 -173.7940
v  -148.1830 0.0000 -173.7940
v  -148.1830 0.0000 -165.9200
v  -148.1830 121.9050 -165.9200
v  -148.1830 121.9050 172.4027
v  -148.1830 -0.0000 172.4027
v  -148.1830 -0.0000 180.2767
v  -148.1830 129.7790 180.2767
v  -148.1830 121.9050 26.9712
v  -148.1830 129.7790 19.0972
v  -148.1830 -0.0000 19.0972
v  -148.1830 -0.0000 26.9712
v  -148.1830 121.9050 -29.4221
v  -148.1830 0.0000 -29.4221
v  -148.1830 0.0000 -21.5481
v  -148.1830 129.7790 -21.5481
v  -114.5610 121.9050 172.4027
v  -114.5609 121.9050 26.9712
v  -114.5609 121.9050 -29.4221
v  -114.5610 121.9050 -165.9200
v  111.3376 0.0000 197.9120
v  41.5668 0.0000 -195.7888
v  41.5668 236.2205 29.0189
v  41.5668 236.2205 -19.5004
v  41.5668 236.2205 -169.8570
v  45.5038 0.0000 187.9120
v  103.4636 0.0000 187.9120
v  103.4636 121.9050 187.9120
v  45.5038 121.9050 187.9120
v  37.6298 129.7790 231.5340
v  37.6298 -0.0000 231.5340
v  45.5038 -0.0000 231.5340
v  45.5038 121.9050 231.5340
v  103.4636 121.9050 231.5340
v  103.4636 -0.0000 231.5340
v  111.3376 -0.0000 231.5340
v  111.3376 129.7790 231.5340
v  103.4636 0.0000 197.9120
v  103.4636 121.9050 197.9120
v  45.5038 121.9050 197.9120
v  45.5038 0.0000 197.9120
# 108 vertices

vn -0.5774 0.5774 0.5774
vn 0.0000 0.7071 0.7071
vn 0.0000 1.0000 -0.0000
vn -0.7071 0.7071 -0.0000
vn -0.7071 0.0000 0.7071
vn -0.5774 -0.5774 0.5774
vn -0.3015 0.3015 0.9045
vn 0.7071 0.0000 0.7071
vn 1.0000 0.0000 -0.0000
vn 0.7071 0.0000 -0.7071
vn 0.0000 0.0000 -1.0000
vn 0.0000 -0.0000 -1.0000
vn -0.7071 0.0000 -0.7071
vn -0.4851 -0.7276 -0.4851
vn -0.9045 0.3015 -0.3015
vn 0.7071 0.7071 -0.0000
vn -0.4851 -0.7276 0.4851
vn -0.9045 0.3015 0.3015
vn -0.7071 -0.0000 -0.7071
vn -0.5774 -0.5774 -0.5774
vn 0.7071 0.7071 0.0000
vn -0.0000 1.0000 0.0000
vn 1.0000 -0.0000 0.0000
vn -0.4830 -0.7304 0.4830
vn -0.4872 -0.7248 -0.4872
vn 0.0000 1.0000 0.0000
vn 1.0000 0.0000 0.0000
vn 0.5774 0.5774 -0.5774
vn 0.0000 0.7071 -0.7071
vn 0.5774 0.5774 0.5773
vn 0.3015 0.3015 0.9045
vn -0.5774 0.5774 -0.5774
vn -0.0000 0.7071 -0.7071
vn -0.7071 0.7071 0.0000
vn 0.0000 -0.6000 -0.8000
vn 0.0000 -1.0000 -0.0000
vn 0.0000 -0.6031 0.7977
vn -0.0000 -0.5969 -0.8023
vn -0.0000 -0.6000 0.8000
vn -0.9045 -0.3015 0.3015
vn -0.9045 -0.3015 -0.3015
vn 0.0000 -0.7071 -0.7071
vn 0.0000 -0.7071 0.7071
vn 0.5774 -0.5774 0.5774
vn -0.0000 0.0000 -1.0000
vn 0.3015 -0.3015 0.9045
vn -0.3015 -0.3015 0.9045
vn 0.5774 0.5774 0.5774
vn -0.8944 -0.4472 -0.0000
vn -0.7071 -0.7071 -0.0000
vn 0.7071 -0.7071 0.0000
vn 0.8944 -0.4472 0.0000
# 52 vertex normals

vt 0.0005 0.0055 0.0000
vt 0.2053 0.0055 0.0000
vt 0.2053 0.0338 0.0000
vt 0.0005 0.0338 0.0000
vt 0.6232 0.3530 0.0000
vt 0.6232 0.5527 0.0000
vt 0.4529 0.5527 0.0000
vt 0.4581 0.3530 0.0000
vt 0.5220 0.9856 0.0000
vt 0.4937 0.9856 0.0000
vt 0.4937 0.8205 0.0000
vt 0.5220 0.8205 0.0000
vt 0.8367 0.6757 0.0000
vt 0.8367 0.6944 0.0000
vt 0.6716 0.6944 0.0000
vt 0.6716 0.6757 0.0000
vt 0.8298 0.3104 0.0000
vt 0.8010 0.3104 0.0000
vt 0.8010 0.1402 0.0000
vt 0.8298 0.1453 0.0000
vt 0.3104 0.0338 0.0000
vt 0.3104 0.2230 0.0000
vt 0.2917 0.2237 0.0000
vt 0.2917 0.0338 0.0000
vt 0.3044 0.9856 0.0000
vt 0.3044 0.8205 0.0000
vt 0.3364 0.3104 0.0000
vt 0.3133 0.3104 0.0000
vt 0.3133 0.1453 0.0000
vt 0.3364 0.1402 0.0000
vt 0.9995 0.7949 0.0000
vt 0.9995 0.9857 0.0000
vt 0.8396 0.9857 0.0000
vt 0.8396 0.7949 0.0000
vt 0.3104 0.2867 0.0000
vt 0.2917 0.2874 0.0000
vt 0.2408 0.9856 0.0000
vt 0.2408 0.8205 0.0000
vt 0.6012 0.3104 0.0000
vt 0.5479 0.3104 0.0000
vt 0.5479 0.1402 0.0000
vt 0.6012 0.1402 0.0000
vt 0.3104 0.4880 0.0000
vt 0.2917 0.4880 0.0000
vt 0.0395 0.9856 0.0000
vt 0.0395 0.8205 0.0000
vt 0.6062 0.1445 0.0000
vt 0.7853 0.1445 0.0000
vt 0.7853 0.3044 0.0000
vt 0.6062 0.3044 0.0000
vt 0.3104 0.5220 0.0000
vt 0.2917 0.5220 0.0000
vt 0.0055 0.9856 0.0000
vt 0.0055 0.8205 0.0000
vt 0.4581 0.6629 0.0000
vt 0.3133 0.6629 0.0000
vt 0.3133 0.6442 0.0000
vt 0.4529 0.6494 0.0000
vt 0.4937 0.6757 0.0000
vt 0.5220 0.6757 0.0000
vt 0.6716 0.9856 0.0000
vt 0.5268 0.9856 0.0000
vt 0.5268 0.7808 0.0000
vt 0.6716 0.7808 0.0000
vt 0.7958 0.0005 0.0000
vt 0.8298 0.0005 0.0000
vt 0.3044 0.6757 0.0000
vt 0.3133 0.0005 0.0000
vt 0.3416 0.0005 0.0000
vt 0.5427 0.0005 0.0000
vt 0.2408 0.6757 0.0000
vt 0.6064 0.0005 0.0000
vt 0.0395 0.6757 0.0000
vt 0.0055 0.6757 0.0000
vt 0.7300 0.4106 0.0000
vt 0.7249 0.4055 0.0000
vt 0.7300 0.4003 0.0000
vt 0.6803 0.4106 0.0000
vt 0.6751 0.4053 0.0000
vt 0.6803 0.4003 0.0000
vt 0.6803 0.4215 0.0000
vt 0.6751 0.4161 0.0000
vt 0.6803 0.4111 0.0000
vt 0.7300 0.4215 0.0000
vt 0.7249 0.4163 0.0000
vt 0.7300 0.4111 0.0000
vt 0.3431 0.1445 0.0000
vt 0.5133 0.1445 0.0000
vt 0.5133 0.1548 0.0000
vt 0.3534 0.1548 0.0000
vt 0.6364 0.6534 0.0000
vt 0.7963 0.6534 0.0000
vt 0.7963 0.6638 0.0000
vt 0.6261 0.6638 0.0000
vt 0.6364 0.4626 0.0000
vt 0.6261 0.4523 0.0000
vt 0.7963 0.4523 0.0000
vt 0.7963 0.4626 0.0000
vt 0.3534 0.3339 0.0000
vt 0.5133 0.3339 0.0000
vt 0.5133 0.3442 0.0000
vt 0.3431 0.3442 0.0000
vt 0.4866 0.3204 0.0000
vt 0.4866 0.1605 0.0000
vt 0.4997 0.1605 0.0000
vt 0.4997 0.3204 0.0000
vt 0.8787 0.1913 0.0000
vt 0.8787 0.0005 0.0000
vt 0.8918 0.0005 0.0000
vt 0.8918 0.1913 0.0000
vt 0.8886 0.6917 0.0000
vt 0.8886 0.5317 0.0000
vt 0.9018 0.5317 0.0000
vt 0.9018 0.6917 0.0000
vt 0.9172 0.5317 0.0000
vt 0.9172 0.6917 0.0000
vt 0.9041 0.6917 0.0000
vt 0.9041 0.5317 0.0000
vt 0.7386 0.4693 0.0000
vt 0.7386 0.6483 0.0000
vt 0.7254 0.6483 0.0000
vt 0.7254 0.4693 0.0000
vt 0.3978 0.1605 0.0000
vt 0.3978 0.3204 0.0000
vt 0.3847 0.3204 0.0000
vt 0.3847 0.1605 0.0000
vt 0.2917 0.0055 0.0000
vt 0.3104 0.0055 0.0000
vt 0.6232 0.6494 0.0000
vt 0.6232 0.6629 0.0000
vt 0.8367 0.7808 0.0000
vt 0.2053 0.2271 0.0000
vt 0.2053 0.2907 0.0000
vt 0.2053 0.4880 0.0000
vt 0.2053 0.5220 0.0000
vt 0.3133 0.5578 0.0000
vt 0.5268 0.6944 0.0000
vt 0.5268 0.6757 0.0000
vt 0.8396 0.7816 0.0000
vt 0.8396 0.7055 0.0000
vt 0.9995 0.7055 0.0000
vt 0.9995 0.7816 0.0000
vt 0.8367 0.9856 0.0000
vt 0.0005 0.2349 0.0000
vt 0.0005 0.2986 0.0000
vt 0.0005 0.4880 0.0000
vt 0.0005 0.5220 0.0000
vt 0.3133 0.3530 0.0000
vt 0.6261 0.3431 0.0000
vt 0.7963 0.3431 0.0000
vt 0.7963 0.3534 0.0000
vt 0.6364 0.3534 0.0000
vt 0.6364 0.4294 0.0000
vt 0.7963 0.4294 0.0000
vt 0.7963 0.4398 0.0000
vt 0.6261 0.4398 0.0000
vt 0.7981 0.4771 0.0000
vt 0.7981 0.6371 0.0000
vt 0.7849 0.6371 0.0000
vt 0.7849 0.4771 0.0000
vt 0.2950 0.5498 0.0000
vt 0.2190 0.5498 0.0000
vt 0.2190 0.5367 0.0000
vt 0.2950 0.5367 0.0000
vt 0.4573 0.6056 0.0000
vt 0.6172 0.6056 0.0000
vt 0.6172 0.6188 0.0000
vt 0.4573 0.6188 0.0000
vt 0.9438 0.3445 0.0000
vt 0.9438 0.1743 0.0000
vt 0.9879 0.1743 0.0000
vt 0.9879 0.3445 0.0000
vt 0.7741 0.4111 0.0000
vt 0.7741 0.4215 0.0000
vt 0.4420 0.1605 0.0000
vt 0.4420 0.3204 0.0000
vt 0.7827 0.4693 0.0000
vt 0.7827 0.6483 0.0000
vt 0.9613 0.5317 0.0000
vt 0.9613 0.6917 0.0000
vt 0.7244 0.4111 0.0000
vt 0.7244 0.4215 0.0000
vt 0.9879 0.3480 0.0000
vt 0.9879 0.5183 0.0000
vt 0.9438 0.5183 0.0000
vt 0.9438 0.3480 0.0000
vt 0.2052 0.6354 0.0000
vt 0.0055 0.6354 0.0000
vt 0.0055 0.5913 0.0000
vt 0.2052 0.5913 0.0000
vt 0.4425 0.3204 0.0000
vt 0.4425 0.1605 0.0000
vt 0.7741 0.4003 0.0000
vt 0.7741 0.4106 0.0000
vt 0.9383 0.0005 0.0000
vt 0.9383 0.1708 0.0000
vt 0.8942 0.1708 0.0000
vt 0.8942 0.0005 0.0000
vt 0.2169 0.5808 0.0000
vt 0.0055 0.5808 0.0000
vt 0.0055 0.5367 0.0000
vt 0.2169 0.5367 0.0000
vt 0.8892 0.3644 0.0000
vt 0.8892 0.1941 0.0000
vt 0.9333 0.1941 0.0000
vt 0.9333 0.3644 0.0000
vt 0.7244 0.4003 0.0000
vt 0.7244 0.4106 0.0000
vt 0.8445 0.6917 0.0000
vt 0.8445 0.5317 0.0000
vt 0.8346 0.1913 0.0000
vt 0.8346 0.0005 0.0000
vt 0.6661 0.3998 0.0000
vt 0.6558 0.3998 0.0000
vt 0.6558 0.3557 0.0000
vt 0.6661 0.3557 0.0000
vt 0.6808 0.6395 0.0000
vt 0.6808 0.4693 0.0000
vt 0.7250 0.4693 0.0000
vt 0.7250 0.6395 0.0000
vt 0.6774 0.3557 0.0000
vt 0.7741 0.3557 0.0000
vt 0.7741 0.3998 0.0000
vt 0.6774 0.3998 0.0000
vt 0.9438 0.1708 0.0000
vt 0.9438 0.0005 0.0000
vt 0.9879 0.0005 0.0000
vt 0.9879 0.1708 0.0000
vt 0.6769 0.3998 0.0000
vt 0.6666 0.3998 0.0000
vt 0.6666 0.3557 0.0000
vt 0.6769 0.3557 0.0000
vt 0.4573 0.5615 0.0000
vt 0.6172 0.5615 0.0000
vt 0.2950 0.5939 0.0000
vt 0.2190 0.5939 0.0000
vt 0.8422 0.4771 0.0000
vt 0.8422 0.6371 0.0000
# 238 texture coords

o Box001
g Box001
usemtl UnwrapChecker
s off
f 1/1/1 2/2/2 3/3/3 4/4/4 
f 5/5/5 6/6/6 7/7/7 8/8/5 
f 9/9/8 10/10/9 11/11/9 12/12/8 
f 13/13/10 14/14/11 15/15/12 16/16/10 
f 17/17/13 18/18/14 19/19/15 20/20/13 
f 21/21/16 22/22/16 23/23/3 24/24/3 
f 10/10/9 25/25/9 26/26/9 11/11/9 
f 27/27/17 5/28/5 8/29/5 28/30/18 
f 29/31/5 30/32/19 31/33/20 32/34/6 
f 22/22/16 33/35/21 34/36/22 23/23/3 
f 25/25/9 35/37/23 36/38/23 26/26/9 
f 37/39/24 38/40/25 39/41/15 40/42/18 
f 33/35/21 41/43/21 42/44/26 34/36/22 
f 35/37/23 43/45/27 44/46/27 36/38/23 
f 45/47/5 46/48/19 47/49/20 48/50/6 
f 41/43/21 49/51/28 50/52/29 42/44/26 
f 43/45/27 13/53/10 16/54/10 44/46/27 
f 12/55/8 51/56/30 52/57/2 53/58/31 
f 11/11/9 21/59/16 51/60/30 12/12/8 
f 20/61/13 54/62/32 55/63/33 56/64/11 
f 19/19/15 57/65/34 54/66/32 20/20/13 
f 26/26/9 22/67/16 21/59/16 11/11/9 
f 8/29/5 1/68/1 4/69/4 28/30/18 
f 28/30/18 4/69/4 58/70/4 39/41/15 
f 36/38/23 33/71/21 22/67/16 26/26/9 
f 39/41/15 58/70/4 59/72/34 40/42/18 
f 44/46/27 41/73/21 33/71/21 36/38/23 
f 40/42/18 59/72/34 57/65/34 19/19/15 
f 16/54/10 49/74/28 41/73/21 44/46/27 
f 60/75/35 61/76/36 27/77/17 
f 38/78/25 62/79/36 63/80/37 
f 64/81/38 65/82/36 37/83/24 
f 18/84/14 66/85/36 67/86/39 
f 68/87/32 69/88/20 70/89/6 71/90/40 
f 72/91/41 73/92/20 74/93/6 75/94/1 
f 76/95/40 72/91/41 75/94/1 77/96/32 
f 77/96/32 78/97/20 79/98/6 76/95/40 
f 80/99/41 81/100/20 82/101/6 83/102/1 
f 71/90/40 80/99/41 83/102/1 68/87/32 
f 60/103/35 84/104/42 31/105/20 30/106/19 
f 84/107/42 85/108/43 32/109/6 31/110/20 
f 85/111/43 63/112/37 29/113/5 32/114/6 
f 64/115/38 86/116/42 47/117/20 46/118/19 
f 86/119/42 87/120/43 48/121/6 47/122/20 
f 87/123/43 67/124/39 45/125/5 48/126/6 
f 52/127/2 51/128/30 21/21/16 24/24/3 
f 88/129/44 9/130/8 12/55/8 53/58/31 
f 14/14/11 89/131/45 56/64/11 15/15/12 
f 23/23/3 90/132/3 3/3/3 24/24/3 
f 34/36/22 91/133/22 90/132/3 23/23/3 
f 42/44/26 92/134/26 91/133/22 34/36/22 
f 50/52/29 55/135/33 92/134/26 42/44/26 
f 52/57/2 2/136/2 7/7/7 53/58/31 
f 50/137/29 49/138/28 16/16/10 15/15/12 
f 2/2/2 52/127/2 24/24/3 3/3/3 
f 93/139/8 94/140/5 95/141/6 96/142/44 
f 55/63/33 50/137/29 15/15/12 56/64/11 
f 89/131/45 17/143/13 20/61/13 56/64/11 
f 90/132/3 58/144/4 4/4/4 3/3/3 
f 91/133/22 59/145/34 58/144/4 90/132/3 
f 92/134/26 57/146/34 59/145/34 91/133/22 
f 55/135/33 54/147/32 57/146/34 92/134/26 
f 2/136/2 1/148/1 8/8/5 7/7/7 
f 97/149/1 98/150/6 99/151/44 100/152/46 
f 101/153/47 102/154/6 103/155/44 104/156/48 
f 100/152/46 101/153/47 104/156/48 97/149/1 
f 105/157/49 106/158/50 95/159/6 94/160/5 
f 106/161/50 107/162/51 96/163/44 95/164/6 
f 107/165/51 108/166/52 93/167/8 96/168/44 
f 19/169/15 18/170/14 69/171/20 68/172/32 
f 18/84/14 67/86/39 70/173/6 69/174/20 
f 67/124/39 87/123/43 71/175/40 70/176/6 
f 87/120/43 86/119/42 80/177/41 71/178/40 
f 86/116/42 64/115/38 81/179/20 80/180/41 
f 64/81/38 37/83/24 82/181/6 81/182/20 
f 37/183/24 40/184/18 83/185/1 82/186/6 
f 40/187/18 19/188/15 68/189/32 83/190/1 
f 84/104/42 60/103/35 73/191/20 72/192/41 
f 60/75/35 27/77/17 74/193/6 73/194/20 
f 27/195/17 28/196/18 75/197/1 74/198/6 
f 28/199/18 39/200/15 77/201/32 75/202/1 
f 39/203/15 38/204/25 78/205/20 77/206/32 
f 38/78/25 63/80/37 79/207/6 78/208/20 
f 63/112/37 85/111/43 76/209/40 79/210/6 
f 85/108/43 84/107/42 72/211/41 76/212/40 
f 105/213/49 88/214/44 103/215/44 102/216/6 
f 88/217/44 53/218/31 104/219/48 103/220/44 
f 53/221/31 7/222/7 97/223/1 104/224/48 
f 7/225/7 6/226/6 98/227/6 97/228/1 
f 6/229/6 108/230/52 99/231/44 98/232/6 
f 108/166/52 107/165/51 100/233/46 99/234/44 
f 107/162/51 106/161/50 101/235/47 100/236/46 
f 106/158/50 105/157/49 102/237/6 101/238/47 
# 89 polygons - 4 triangles

