# 3ds Max Wavefront OBJ Exporter v0.99 - (c)2007 guruware
# File Created: 29.04.2023 17:21:19

mtllib entrepot.mtl

#
# object Box001
#

v  -99.1900 312.3154 258.8241
v  137.0305 312.3154 258.8241
v  137.0305 236.2205 -134.8767
v  -99.1900 236.2205 -134.8767
v  137.0305 0.0000 258.8241
v  137.0305 0.0000 -134.8767
v  -99.1900 0.0000 -134.8767
v  -91.3159 0.0000 -115.7479
v  -91.3159 0.0000 39.7585
v  -91.3159 177.1654 39.7585
v  -91.3159 177.1654 -115.7479
v  26.7943 2.8883 83.2197
v  26.7943 2.8883 228.3982
v  26.7943 88.1890 228.3982
v  26.7943 88.1890 83.2197
v  -99.1900 177.1654 -115.7479
v  -99.1900 0.0000 -115.7479
v  -99.1900 0.0000 39.7585
v  -99.1900 177.1654 39.7585
v  -99.1900 0.0000 228.7919
v  -99.1900 177.1654 228.7919
v  -91.3159 88.5827 228.7919
v  -91.3159 0.0000 228.7919
v  -99.1900 177.1654 82.8260
v  -91.3159 177.1654 82.8260
v  -91.3159 177.1654 228.7919
v  -91.3159 88.5827 82.8260
v  -99.1900 0.0000 236.2999
v  -99.1900 0.0000 258.8241
v  -99.1900 0.0000 50.8661
v  -91.3159 0.0000 82.8260
v  -99.1900 0.0000 82.8260
v  -99.1900 0.0000 72.3998
v  -99.1900 0.0000 -125.3123
v  -111.5905 0.0000 236.2999
v  -111.5905 0.0000 228.7919
v  -99.1900 184.5472 236.1753
v  -111.5905 184.5472 236.1753
v  -99.1900 184.5472 72.5059
v  -111.5905 184.5472 72.5059
v  -111.5905 0.0000 72.3998
v  -111.5905 0.0000 82.8260
v  -111.5905 177.1654 82.8260
v  -111.5905 177.1654 228.7919
v  -111.5905 0.0000 50.8661
v  -111.5905 0.0000 39.7585
v  -99.1900 184.5472 50.9285
v  -111.5905 184.5472 50.9285
v  -99.1900 184.5472 -125.2249
v  -111.5905 184.5472 -125.2249
v  -111.5905 0.0000 -125.3123
v  -111.5905 0.0000 -115.7479
v  -111.5905 177.1654 -115.7479
v  -111.5905 177.1654 39.7585
v  43.1288 0.0000 250.9501
v  107.5029 0.0000 250.9501
v  107.5029 122.1436 250.9501
v  43.1288 122.1436 250.9501
v  107.5029 0.0000 266.6981
v  115.0989 0.0000 266.6981
v  114.7890 129.0448 266.6981
v  107.5029 122.1436 266.6981
v  43.1288 0.0000 258.8241
v  35.8021 0.0000 258.8241
v  36.4389 129.0249 258.8241
v  35.8021 0.0000 266.6981
v  43.1288 0.0000 266.6981
v  43.1288 122.1436 266.6981
v  36.4389 129.0249 266.6981
v  43.1288 122.1436 258.8241
v  107.5029 122.1436 258.8241
v  107.5029 0.0000 258.8241
v  115.0989 0.0000 258.8241
v  114.7890 129.0448 258.8241
v  -91.3159 2.8883 228.3982
v  -91.3159 2.8883 83.2197
v  -91.3159 88.1890 228.3982
v  -91.3159 88.1890 83.2197
# 78 vertices

vn -0.5680 0.6348 0.5239
vn 0.5680 0.6348 0.5239
vn 0.5881 0.5148 -0.6238
vn -0.5881 0.5148 -0.6238
vn 0.5774 -0.5774 0.5774
vn 0.5774 -0.5774 -0.5774
vn -0.5774 -0.5774 -0.5774
vn -0.5774 0.5774 0.5774
vn -0.3015 -0.9045 -0.3015
vn -0.5774 -0.5774 0.5774
vn -0.5774 0.5774 -0.5774
vn 0.0000 -0.7071 0.7071
vn 0.0000 -0.7071 -0.7071
vn -0.7071 0.0000 -0.7071
vn -0.7071 0.0000 0.7071
vn -0.3017 -0.9045 0.3016
vn -0.3014 -0.9046 0.3015
vn -0.3015 -0.9045 0.3015
vn -0.3017 -0.9045 -0.3015
vn -0.3016 -0.9045 -0.3015
vn -0.5773 -0.5772 0.5776
vn -0.9045 0.3017 0.3015
vn -0.5774 0.5775 0.5771
vn -0.9045 0.3017 -0.3015
vn -0.5774 0.5775 -0.5772
vn -0.5773 -0.5772 -0.5775
vn -0.9045 -0.3015 0.3015
vn -0.9045 -0.3015 -0.3015
vn -0.5774 -0.5774 0.5772
vn -0.9046 0.3014 0.3015
vn -0.5773 0.5773 0.5775
vn 0.3015 -0.9045 0.3015
vn 0.5781 -0.5767 0.5772
vn 0.5766 0.5780 0.5775
vn -0.3015 -0.3015 0.9045
vn 0.7071 -0.7071 -0.0000
vn -0.3018 -0.9040 0.3028
vn -0.3017 0.3031 0.9039
vn -0.5789 -0.5761 0.5771
vn 0.3015 -0.3015 0.9045
vn -0.5759 0.5785 0.5777
vn -0.7071 -0.7071 -0.0000
vn 0.3017 -0.9043 0.3021
vn 0.3015 0.3022 0.9043
vn -0.9045 0.3015 -0.3015
vn -0.9045 0.3015 0.3015
# 46 vertex normals

vt 0.0000 0.0000 0.0000
vt 1.0000 0.0000 0.0000
vt 1.0000 1.0000 0.0000
vt 0.0000 1.0000 0.0000
vt 0.1250 0.0000 0.0000
vt 0.4531 0.0000 0.0000
vt 0.4531 0.7500 0.0000
vt 0.1250 0.7500 0.0000
vt 0.5469 0.0000 0.0000
vt 0.8750 0.0000 0.0000
vt 0.8750 0.3750 0.0000
vt 0.5469 0.3750 0.0000
vt 0.8750 0.7500 0.0000
vt 0.5469 0.7500 0.0000
vt 0.6562 0.0000 0.0000
vt 0.4766 0.0000 0.0000
vt 0.5234 0.0000 0.0000
vt 0.0625 0.0000 0.0000
vt 0.9062 0.0000 0.0000
vt 0.9425 0.7812 0.0000
vt 0.5268 0.7812 0.0000
vt 0.4719 0.7812 0.0000
vt 0.0245 0.7812 0.0000
vt 0.7500 0.0000 0.0000
vt 0.8750 0.5000 0.0000
vt 0.7500 0.5000 0.0000
vt 0.9319 0.0000 0.0000
vt 0.9306 0.5181 0.0000
vt 0.2294 0.0000 0.0000
vt -0.0000 0.0000 0.0000
vt 0.7007 0.0000 0.0000
vt 0.6990 0.5181 0.0000
# 32 texture coords

o Box001
g Box001
usemtl wire_135110008
s off
f 1/1/1 2/2/2 3/3/3 4/4/4 
f 5/1/5 6/2/6 3/3/3 2/4/2 
f 6/1/6 7/2/7 4/3/4 3/4/3 
f 8/5/8 9/6/9 10/7/7 11/8/10 
f 12/9/8 13/10/11 14/11/7 15/12/10 
f 16/8/12 17/5/12 8/5/8 11/8/10 
f 18/6/13 19/7/13 10/7/7 9/6/9 
f 19/7/13 16/8/12 11/8/10 10/7/7 
f 20/10/13 21/13/13 22/11/14 23/10/9 
f 21/13/13 24/14/12 25/14/10 26/13/7 
f 24/14/12 27/12/15 25/14/10 
f 20/10/13 23/10/9 28/15/16 
f 23/10/9 29/1/10 28/15/16 
f 30/16/17 18/6/13 9/6/9 
f 31/9/18 32/9/12 33/17/19 
f 33/17/19 30/16/17 9/6/9 31/9/18 
f 8/5/8 17/5/12 34/18/20 
f 8/5/8 34/18/20 7/1/7 
f 6/1/6 9/6/9 8/5/8 7/1/7 
f 20/10/13 28/19/16 35/19/21 36/10/7 
f 28/19/16 37/20/22 38/20/23 35/19/21 
f 37/20/22 39/21/24 40/21/25 38/20/23 
f 39/21/24 33/17/19 41/17/26 40/21/25 
f 33/17/19 32/9/12 42/9/10 41/17/26 
f 32/9/12 24/14/12 43/14/27 42/9/10 
f 24/14/12 21/13/13 44/13/28 43/14/27 
f 21/13/13 20/10/13 36/10/7 44/13/28 
f 18/6/13 30/16/17 45/16/29 46/6/7 
f 30/16/17 47/22/30 48/22/31 45/16/29 
f 47/22/30 49/23/24 50/23/25 48/22/31 
f 49/23/24 34/18/20 51/18/26 50/23/25 
f 34/18/20 17/5/12 52/5/10 51/18/26 
f 17/5/12 16/8/12 53/8/27 52/5/10 
f 16/8/12 19/7/13 54/7/28 53/8/27 
f 19/7/13 18/6/13 46/6/7 54/7/28 
f 4/4/4 7/2/7 34/18/20 49/23/24 
f 37/20/22 28/19/16 29/1/10 1/4/1 
f 4/4/4 49/23/24 47/22/30 
f 40/21/25 41/17/26 42/9/10 43/14/27 
f 50/23/25 51/18/26 52/5/10 53/8/27 
f 44/13/28 36/10/7 35/19/21 38/20/23 
f 43/14/27 44/13/28 38/20/23 40/21/25 
f 54/7/28 46/6/7 45/16/29 48/22/31 
f 53/8/27 54/7/28 48/22/31 50/23/25 
f 39/21/24 37/20/22 1/4/1 
f 47/22/30 39/21/24 1/4/1 4/4/4 
f 55/24/32 56/10/18 57/25/10 58/26/5 
f 59/10/10 60/27/33 61/28/34 62/25/35 
f 55/29/32 63/30/36 64/1/37 
f 1/4/1 29/1/10 64/31/37 65/32/38 
f 66/31/39 67/24/5 68/26/40 69/32/41 
f 68/26/40 62/25/35 61/28/34 69/32/41 
f 63/24/36 70/26/36 68/26/40 67/24/5 
f 70/26/36 71/25/42 62/25/35 68/26/40 
f 71/25/42 72/10/42 59/10/10 62/25/35 
f 72/10/42 73/27/43 60/27/33 59/10/10 
f 73/27/43 74/28/44 61/28/34 60/27/33 
f 74/28/44 65/32/38 69/32/41 61/28/34 
f 65/32/38 64/31/37 66/31/39 69/32/41 
f 64/31/37 63/24/36 67/24/5 66/31/39 
f 72/10/42 71/25/42 57/25/10 56/10/18 
f 71/25/42 70/26/36 58/26/5 57/25/10 
f 70/26/36 63/24/36 55/24/32 58/26/5 
f 73/30/43 72/30/42 56/29/18 
f 64/1/37 29/1/10 23/10/9 55/29/32 
f 56/29/18 5/1/5 73/30/43 
f 56/29/18 55/29/32 23/10/9 31/9/18 
f 31/9/18 5/1/5 56/29/18 
f 31/9/18 9/6/9 6/1/6 5/1/5 
f 39/21/24 47/22/30 30/16/17 33/17/19 
f 74/28/44 73/27/43 5/2/5 2/3/2 
f 65/32/38 74/28/44 2/3/2 1/4/1 
f 22/11/14 26/13/7 25/14/10 27/12/15 
f 31/9/18 23/10/9 75/10/45 76/9/46 
f 23/10/9 22/11/14 77/11/28 75/10/45 
f 22/11/14 27/12/15 78/12/27 77/11/28 
f 27/12/15 31/9/18 76/9/46 78/12/27 
f 76/9/46 75/10/45 13/10/11 12/9/8 
f 75/10/45 77/11/28 14/11/7 13/10/11 
f 77/11/28 78/12/27 15/12/10 14/11/7 
f 78/12/27 76/9/46 12/9/8 15/12/10 
f 24/14/12 32/9/12 31/9/18 27/12/15 
f 21/13/13 26/13/7 22/11/14 
# 69 polygons - 14 triangles

