# 3ds Max Wavefront OBJ Exporter v0.99 - (c)2007 guruware
# File Created: 30.04.2023 08:17:05

mtllib lampadaire.mtl

#
# object Box001
#

v  -3.9821 0.0000 8.0639
v  -3.9821 0.0000 -8.1344
v  4.8130 0.0000 -8.1344
v  4.8130 0.0000 8.0639
v  4.8130 196.8504 8.0639
v  -3.9821 188.8648 8.0639
v  4.8130 196.8504 -8.1344
v  -3.9821 188.8648 -8.1344
v  -48.0223 210.2235 4.1269
v  -48.0223 210.2235 -4.1974
v  -48.0905 206.2186 -4.1974
v  -48.0905 206.2186 4.1269
v  -11.9906 213.3134 8.0639
v  -13.6438 201.5495 8.0639
v  -11.9906 213.3134 -8.1344
v  -13.6438 201.5495 -8.1344
v  -32.2096 213.8920 8.0639
v  -32.4117 202.0142 8.0639
v  -32.2096 213.8920 -8.1344
v  -32.4117 202.0142 -8.1344
v  -32.2766 209.9556 4.1269
v  -32.3447 205.9507 4.1269
v  -32.2766 209.9556 -4.1974
v  -32.3447 205.9507 -4.1974
v  -41.8086 210.1178 4.1269
v  -41.8768 206.1129 4.1269
v  -41.8086 210.1178 -4.1974
v  -41.8768 206.1129 -4.1974
v  -46.1223 206.1851 -2.2289
v  -46.1223 206.1851 2.1583
v  -43.8450 206.1464 -2.2289
v  -43.8450 206.1464 2.1583
v  -46.3509 192.7491 -2.2289
v  -46.3509 192.7491 2.1583
v  -44.0737 192.7103 -2.2289
v  -44.0737 192.7103 2.1583
# 36 vertices

vn -0.5774 -0.5774 0.5774
vn -0.5774 -0.5774 -0.5774
vn 0.5774 -0.5774 -0.5774
vn 0.5774 -0.5774 0.5774
vn 0.7164 0.3010 0.6295
vn -0.5850 -0.1974 0.7866
vn 0.7164 0.3010 -0.6295
vn -0.5850 -0.1974 -0.7866
vn -0.5674 0.5871 0.5774
vn -0.5674 0.5871 -0.5774
vn -0.5870 -0.5674 -0.5775
vn -0.5870 -0.5674 0.5775
vn 0.3026 0.7121 0.6335
vn -0.2613 -0.5115 0.8186
vn 0.3026 0.7121 -0.6335
vn -0.2613 -0.5115 -0.8186
vn -0.5643 0.5907 0.5767
vn -0.5891 -0.5650 0.5778
vn -0.5643 0.5907 -0.5767
vn -0.5891 -0.5650 -0.5778
vn -0.8993 0.3169 0.3015
vn -0.9095 -0.2861 0.3015
vn -0.8993 0.3169 -0.3015
vn -0.9095 -0.2861 -0.3015
vn 0.0120 0.7069 0.7072
vn -0.0120 -0.7070 0.7071
vn 0.0120 0.7069 -0.7072
vn -0.0120 -0.7070 -0.7071
vn -0.3169 -0.8993 -0.3015
vn -0.3169 -0.8993 0.3015
vn 0.2861 -0.9095 -0.3015
vn 0.2861 -0.9095 0.3015
vn -0.7070 0.0120 -0.7071
vn -0.7070 0.0120 0.7071
vn 0.7070 -0.0120 -0.7071
vn 0.7070 -0.0120 0.7071
# 36 vertex normals

vt 0.2963 0.4051 0.0000
vt 0.2219 0.4051 0.0000
vt 0.2219 0.3647 0.0000
vt 0.2963 0.3647 0.0000
vt 0.2086 0.9818 0.0000
vt 0.1683 0.9818 0.0000
vt 0.1683 0.0787 0.0000
vt 0.2086 0.1153 0.0000
vt 0.9100 0.9072 0.0000
vt 0.8357 0.9072 0.0000
vt 0.8357 0.0041 0.0000
vt 0.9100 0.0041 0.0000
vt 0.6068 0.9876 0.0000
vt 0.5665 0.9873 0.0000
vt 0.5714 0.1208 0.0000
vt 0.6119 0.0844 0.0000
vt 0.9921 0.9288 0.0000
vt 0.9178 0.9288 0.0000
vt 0.9178 0.0623 0.0000
vt 0.9921 0.0623 0.0000
vt 0.0862 0.1458 0.0000
vt 0.0862 0.1076 0.0000
vt 0.1045 0.1076 0.0000
vt 0.1045 0.1458 0.0000
vt 0.2454 0.0032 0.0000
vt 0.2529 0.0571 0.0000
vt 0.2219 0.5666 0.0000
vt 0.2963 0.5666 0.0000
vt 0.2963 0.6437 0.0000
vt 0.2219 0.6437 0.0000
vt 0.5274 0.0624 0.0000
vt 0.5352 0.0085 0.0000
vt 0.9178 0.0041 0.0000
vt 0.9921 0.0041 0.0000
vt 0.3381 0.0005 0.0000
vt 0.3390 0.0550 0.0000
vt 0.2963 0.7364 0.0000
vt 0.2219 0.7364 0.0000
vt 0.4413 0.0598 0.0000
vt 0.4425 0.0053 0.0000
vt 0.2219 0.4801 0.0000
vt 0.2963 0.4801 0.0000
vt 0.2963 0.5662 0.0000
vt 0.2219 0.5662 0.0000
vt 0.2418 0.4054 0.0000
vt 0.2963 0.4054 0.0000
vt 0.2782 0.4235 0.0000
vt 0.2598 0.4235 0.0000
vt 0.2963 0.4797 0.0000
vt 0.2782 0.4617 0.0000
vt 0.2418 0.4797 0.0000
vt 0.2598 0.4617 0.0000
vt 0.0237 0.1370 0.0000
vt 0.0053 0.1373 0.0000
vt 0.0046 0.0936 0.0000
vt 0.0229 0.0933 0.0000
vt 0.0763 0.1540 0.0000
vt 0.0763 0.1922 0.0000
vt 0.0326 0.1922 0.0000
vt 0.0326 0.1540 0.0000
vt 0.2402 0.4797 0.0000
vt 0.2218 0.4794 0.0000
vt 0.2225 0.4357 0.0000
vt 0.2409 0.4360 0.0000
vt 0.0637 0.1441 0.0000
vt 0.0255 0.1441 0.0000
vt 0.0255 0.1004 0.0000
vt 0.0637 0.1004 0.0000
vt 0.0041 0.0651 0.0000
vt 0.0224 0.0647 0.0000
vt 0.0041 0.1922 0.0000
vt 0.0041 0.1540 0.0000
vt 0.2230 0.4072 0.0000
vt 0.2414 0.4075 0.0000
vt 0.0255 0.0719 0.0000
vt 0.0637 0.0719 0.0000
vt 0.0546 0.0809 0.0000
vt 0.0345 0.0809 0.0000
vt 0.0546 0.0914 0.0000
vt 0.0345 0.0914 0.0000
vt 0.1598 0.0657 0.0000
vt 0.1397 0.0657 0.0000
vt 0.1397 0.0041 0.0000
vt 0.1598 0.0041 0.0000
vt 0.2111 0.6746 0.0000
vt 0.2216 0.6748 0.0000
vt 0.2205 0.7364 0.0000
vt 0.2101 0.7362 0.0000
vt 0.0849 0.1407 0.0000
vt 0.0647 0.1407 0.0000
vt 0.0647 0.0790 0.0000
vt 0.0849 0.0790 0.0000
vt 0.2101 0.6126 0.0000
vt 0.2205 0.6124 0.0000
vt 0.2216 0.6741 0.0000
vt 0.2111 0.6742 0.0000
# 96 texture coords

o Box001
g Box001
usemtl wire_088144225
s off
f 1/1/1 2/2/2 3/3/3 4/4/4 
f 1/5/1 4/6/4 5/7/5 6/8/6 
f 4/9/4 3/10/3 7/11/7 5/12/5 
f 3/13/3 2/14/2 8/15/8 7/16/7 
f 2/17/2 1/18/1 6/19/6 8/20/8 
f 9/21/9 10/22/10 11/23/11 12/24/12 
f 6/8/6 5/7/5 13/25/13 14/26/14 
f 5/27/5 7/28/7 15/29/15 13/30/13 
f 7/16/7 8/15/8 16/31/16 15/32/15 
f 8/20/8 6/19/6 14/33/14 16/34/16 
f 14/26/14 13/25/13 17/35/17 18/36/18 
f 13/30/13 15/29/15 19/37/19 17/38/17 
f 15/32/15 16/31/16 20/39/20 19/40/19 
f 16/41/16 14/42/14 18/43/18 20/44/20 
f 18/45/18 17/46/17 21/47/21 22/48/22 
f 17/46/17 19/49/19 23/50/23 21/47/21 
f 19/49/19 20/51/20 24/52/24 23/50/23 
f 20/51/20 18/45/18 22/48/22 24/52/24 
f 22/53/22 21/54/21 25/55/25 26/56/26 
f 21/57/21 23/58/23 27/59/27 25/60/25 
f 23/61/23 24/62/24 28/63/28 27/64/27 
f 24/65/24 22/66/22 26/67/26 28/68/28 
f 25/55/25 9/69/9 12/70/12 26/56/26 
f 27/59/27 10/71/10 9/72/9 25/60/25 
f 28/63/28 11/73/11 10/74/10 27/64/27 
f 12/75/12 11/76/11 29/77/29 30/78/30 
f 11/76/11 28/68/28 31/79/31 29/77/29 
f 28/68/28 26/67/26 32/80/32 31/79/31 
f 26/67/26 12/75/12 30/78/30 32/80/32 
f 30/81/30 29/82/29 33/83/33 34/84/34 
f 29/85/29 31/86/31 35/87/35 33/88/33 
f 31/89/31 32/90/32 36/91/36 35/92/35 
f 32/93/32 30/94/30 34/95/34 36/96/36 
# 33 polygons

#
# object lumiere
#

v  -44.2470 182.5277 2.1583
v  -46.5243 182.5665 2.1583
v  -46.5243 182.5665 -2.2289
v  -44.2470 182.5277 -2.2289
v  -50.4607 182.6335 6.0954
v  -50.4607 182.6335 -6.1659
v  -40.3106 182.4607 6.0954
v  -40.3106 182.4607 -6.1659
v  -46.3509 192.7491 2.1583
v  -46.3509 192.7491 -2.2289
v  -50.2874 192.8161 -6.1659
v  -50.2874 192.8161 6.0954
v  -44.0737 192.7103 -2.2289
v  -40.1372 192.6433 -6.1659
v  -44.0737 192.7103 2.1583
v  -40.1372 192.6433 6.0954
# 16 vertices

vn -0.0170 -0.9999 -0.0000
vn -0.0170 -0.9999 0.0000
vn -0.5871 -0.5674 0.5774
vn -0.5871 -0.5674 -0.5774
vn 0.5674 -0.5872 0.5773
vn 0.5674 -0.5872 -0.5773
vn 0.0170 0.9999 -0.0000
vn 0.0170 0.9999 0.0000
vn -0.5673 0.5871 -0.5775
vn -0.5673 0.5871 0.5775
vn 0.5872 0.5674 -0.5772
vn 0.5872 0.5674 0.5772
# 12 vertex normals

vt 0.5245 0.1995 0.0000
vt 0.5245 0.1265 0.0000
vt 0.6649 0.1265 0.0000
vt 0.6649 0.1995 0.0000
vt 0.3984 0.0005 0.0000
vt 0.7910 0.0005 0.0000
vt 0.3984 0.3255 0.0000
vt 0.7910 0.3255 0.0000
vt 0.1265 0.4560 0.0000
vt 0.1265 0.5965 0.0000
vt 0.0005 0.7225 0.0000
vt 0.0005 0.3299 0.0000
vt 0.1995 0.5965 0.0000
vt 0.3255 0.7225 0.0000
vt 0.1995 0.4560 0.0000
vt 0.3255 0.3299 0.0000
vt 0.3974 0.3265 0.0000
vt 0.0048 0.3265 0.0000
vt 0.0048 0.0005 0.0000
vt 0.3974 0.0005 0.0000
vt 0.9929 0.9995 0.0000
vt 0.6679 0.9940 0.0000
vt 0.6735 0.6679 0.0000
vt 0.9985 0.6735 0.0000
vt 0.7268 0.6560 0.0000
vt 0.3342 0.6560 0.0000
vt 0.3342 0.3299 0.0000
vt 0.7268 0.3299 0.0000
vt 0.3397 0.9899 0.0000
vt 0.3342 0.6649 0.0000
vt 0.6603 0.6594 0.0000
vt 0.6658 0.9844 0.0000
# 32 texture coords

o lumiere
g lumiere
usemtl wire_088144225
s off
f 37/97/37 38/98/38 39/99/37 40/100/38 
f 39/99/37 38/98/38 41/101/39 42/102/40 
f 38/98/38 37/97/37 43/103/41 41/101/39 
f 37/97/37 40/100/38 44/104/42 43/103/41 
f 40/100/38 39/99/37 42/102/40 44/104/42 
f 45/105/43 46/106/44 47/107/45 48/108/46 
f 46/106/44 49/109/43 50/110/47 47/107/45 
f 49/109/43 51/111/44 52/112/48 50/110/47 
f 51/111/44 45/105/43 48/108/46 52/112/48 
f 48/113/46 47/114/45 42/115/40 41/116/39 
f 47/117/45 50/118/47 44/119/42 42/120/40 
f 50/121/47 52/122/48 43/123/41 44/124/42 
f 52/125/48 48/126/46 41/127/39 43/128/41 
# 13 polygons

